<svg xmlns="http://www.w3.org/2000/svg" viewBox="0 0 837.15 196.2"><defs><style>.cls-1{stroke:#fff;}.cls-1,.cls-2{stroke-miterlimit:10;stroke-width:2px;}.cls-2{fill:#fff;stroke:#000;}</style></defs><g id="Слой_2" data-name="Слой 2"><g id="Слой_1-2" data-name="Слой 1"><path class="cls-1" d="M35.77,4.53v42.3H25.45V43.75q-3,3.59-9.06,3.59a15.39,15.39,0,0,1-7.7-2,14.37,14.37,0,0,1-5.5-5.62,17.19,17.19,0,0,1-2-8.44,17,17,0,0,1,2-8.4,14.08,14.08,0,0,1,5.5-5.56,15.59,15.59,0,0,1,7.7-1.94c3.69,0,6.54,1.07,8.55,3.19V4.53ZM23.29,36.77a7.73,7.73,0,0,0,1.82-5.45A7.59,7.59,0,0,0,23.32,26,6,6,0,0,0,18.67,24,6.09,6.09,0,0,0,14,26a7.47,7.47,0,0,0-1.83,5.35A7.69,7.69,0,0,0,14,36.77a6.07,6.07,0,0,0,4.67,2A6,6,0,0,0,23.29,36.77Z"/><path class="cls-1" d="M74.13,34.12H51.67a6.29,6.29,0,0,0,2.65,3.67,8.82,8.82,0,0,0,4.93,1.29,10.6,10.6,0,0,0,3.85-.63,11.41,11.41,0,0,0,3.28-2.05l5.7,5.93q-4.5,5-13.17,5a21,21,0,0,1-9.52-2.05,15.11,15.11,0,0,1-8.6-14,15.23,15.23,0,0,1,8.26-13.85,19.46,19.46,0,0,1,17.1-.14,14.57,14.57,0,0,1,6,5.53,16.24,16.24,0,0,1,2.19,8.58C74.3,31.51,74.24,32.41,74.13,34.12ZM53.64,24.54a6.47,6.47,0,0,0-2.14,3.88H64.16A6.47,6.47,0,0,0,62,24.54a6.89,6.89,0,0,0-8.38,0Z"/><path class="cls-1" d="M103.37,18.93c2.7,2.33,4,5.92,4,10.74V46.83H97.33v-4q-2.34,4.5-9.12,4.5A14.33,14.33,0,0,1,82,46.09a9.32,9.32,0,0,1-4-3.39,9,9,0,0,1-1.33-4.88A7.92,7.92,0,0,1,80.06,31q3.36-2.42,10.37-2.42h6.16q-.28-4.9-6.56-4.9a14.87,14.87,0,0,0-4.5.71,11.91,11.91,0,0,0-3.88,2L78,19a20.28,20.28,0,0,1,6.24-2.65,29.52,29.52,0,0,1,7.38-.94Q99.33,15.42,103.37,18.93ZM94.54,39.59a5.09,5.09,0,0,0,2-2.68V34.23H91.91q-4.72,0-4.73,3.14a2.74,2.74,0,0,0,1.09,2.28,4.65,4.65,0,0,0,3,.85A6,6,0,0,0,94.54,39.59Z"/><path class="cls-1" d="M128.88,16.48A16.19,16.19,0,0,1,135,15.42v9.75A20.82,20.82,0,0,0,132.5,25a7.55,7.55,0,0,0-5.45,1.88q-2,1.88-2,5.75v14.2H114.26V15.93h10.31v3.71A10.07,10.07,0,0,1,128.88,16.48Z"/><path class="cls-1" d="M205.43,18.84q3.39,3.42,3.39,10.32V46.83H198V30.92a7.6,7.6,0,0,0-1.23-4.78,4.12,4.12,0,0,0-3.44-1.54,5,5,0,0,0-3.94,1.71,7.75,7.75,0,0,0-1.48,5.19V46.83H177.07V30.92q0-6.32-4.67-6.32a5,5,0,0,0-4,1.71,7.75,7.75,0,0,0-1.49,5.19V46.83H156.09V15.93h10.32v3.25a10.93,10.93,0,0,1,4.08-2.82,13.73,13.73,0,0,1,5.16-.94,13.56,13.56,0,0,1,5.81,1.2,9.83,9.83,0,0,1,4.16,3.65,12.07,12.07,0,0,1,4.62-3.6,14.79,14.79,0,0,1,6.1-1.25A12.22,12.22,0,0,1,205.43,18.84Z"/><path class="cls-1" d="M240.57,18.93c2.7,2.33,4.05,5.92,4.05,10.74V46.83H234.53v-4q-2.34,4.5-9.12,4.5a14.38,14.38,0,0,1-6.22-1.25,9.23,9.23,0,0,1-4-3.39,9,9,0,0,1-1.34-4.88A7.91,7.91,0,0,1,217.26,31q3.36-2.42,10.37-2.42h6.16c-.2-3.27-2.38-4.9-6.56-4.9a14.87,14.87,0,0,0-4.5.71,11.81,11.81,0,0,0-3.88,2L215.2,19a20.28,20.28,0,0,1,6.24-2.65,29.66,29.66,0,0,1,7.39-.94Q236.53,15.42,240.57,18.93Zm-8.84,20.66a5.1,5.1,0,0,0,2.06-2.68V34.23h-4.68q-4.73,0-4.73,3.14a2.76,2.76,0,0,0,1.08,2.28,4.66,4.66,0,0,0,3,.85A6,6,0,0,0,231.73,39.59Z"/><path class="cls-1" d="M258.52,45.29a15.18,15.18,0,0,1-8.55-14,15,15,0,0,1,8.55-13.88,20.38,20.38,0,0,1,9.18-2,17.52,17.52,0,0,1,9.06,2.25,12.48,12.48,0,0,1,5.42,6.24l-8.38,4.28Q271.68,24,267.64,24A6.43,6.43,0,0,0,262.83,26a7.25,7.25,0,0,0-1.91,5.35,7.47,7.47,0,0,0,1.91,5.45,6.41,6.41,0,0,0,4.81,2c2.7,0,4.75-1.38,6.16-4.16l8.38,4.28a12.48,12.48,0,0,1-5.42,6.24,17.52,17.52,0,0,1-9.06,2.25A20,20,0,0,1,258.52,45.29Z"/><path class="cls-1" d="M315.55,18.84q3.51,3.42,3.51,10.32V46.83H308.23V30.92c0-4.21-1.7-6.32-5.08-6.32a5.8,5.8,0,0,0-4.47,1.82A7.84,7.84,0,0,0,297,31.89V46.83H286.17V4.53H297V18.78a11.74,11.74,0,0,1,4.16-2.5,15.09,15.09,0,0,1,5.13-.86A12.69,12.69,0,0,1,315.55,18.84Z"/><path class="cls-1" d="M326.47,10.86a5.3,5.3,0,0,1-1.83-4.1,5.32,5.32,0,0,1,1.83-4.11A6.84,6.84,0,0,1,331.25,1,7.05,7.05,0,0,1,336,2.57a5,5,0,0,1,1.83,4A5.5,5.5,0,0,1,336,10.83a6.78,6.78,0,0,1-4.79,1.68A6.84,6.84,0,0,1,326.47,10.86Zm-.63,5.07h10.83v30.9H325.84Z"/><path class="cls-1" d="M373.06,18.84q3.51,3.42,3.51,10.32V46.83H365.74V30.92q0-6.32-5.07-6.32a5.81,5.81,0,0,0-4.48,1.82,7.84,7.84,0,0,0-1.68,5.47V46.83H343.68V15.93H354V19.3a12.09,12.09,0,0,1,4.33-2.88,14.54,14.54,0,0,1,5.47-1A12.68,12.68,0,0,1,373.06,18.84Z"/><path class="cls-1" d="M415.21,34.12H392.76a6.25,6.25,0,0,0,2.65,3.67,8.8,8.8,0,0,0,4.93,1.29,10.58,10.58,0,0,0,3.84-.63,11.28,11.28,0,0,0,3.28-2.05l5.7,5.93q-4.5,5-13.17,5a20.94,20.94,0,0,1-9.51-2.05,15.1,15.1,0,0,1-8.61-14,15.23,15.23,0,0,1,8.26-13.85,18.45,18.45,0,0,1,8.72-2,18.26,18.26,0,0,1,8.38,1.91,14.51,14.51,0,0,1,6,5.53,16.24,16.24,0,0,1,2.19,8.58C415.38,31.51,415.33,32.41,415.21,34.12Zm-20.49-9.58a6.47,6.47,0,0,0-2.14,3.88h12.66a6.47,6.47,0,0,0-2.14-3.88,6.89,6.89,0,0,0-8.38,0Z"/><path class="cls-1" d="M429.63,36.28a6.14,6.14,0,0,1,1.83,4.62,10.7,10.7,0,0,1-.34,2.62,27,27,0,0,1-1.54,3.94L426,55.78H419.2l2.68-9.29a5.65,5.65,0,0,1-2.48-2.2,6.39,6.39,0,0,1-.88-3.39,6.17,6.17,0,0,1,1.82-4.62A6.49,6.49,0,0,1,425,34.52,6.37,6.37,0,0,1,429.63,36.28Z"/><path class="cls-1" d="M480.22,17.39A14.32,14.32,0,0,1,485.69,23a17,17,0,0,1,2,8.41,16.94,16.94,0,0,1-2,8.41,14.41,14.41,0,0,1-5.47,5.59,15.2,15.2,0,0,1-7.67,2,11.47,11.47,0,0,1-8.6-3.25v13.8H453.12v-42h10.31V19q3-3.59,9.12-3.59A15.21,15.21,0,0,1,480.22,17.39ZM475,36.77a7.65,7.65,0,0,0,1.82-5.39A7.66,7.66,0,0,0,475,26a6.56,6.56,0,0,0-9.35,0,7.62,7.62,0,0,0-1.82,5.39,7.6,7.6,0,0,0,1.82,5.39,6.56,6.56,0,0,0,9.35,0Z"/><path class="cls-1" d="M492.73,4.53h10.83v42.3H492.73Z"/><path class="cls-1" d="M542,34.12H519.52a6.29,6.29,0,0,0,2.65,3.67,8.82,8.82,0,0,0,4.93,1.29,10.64,10.64,0,0,0,3.85-.63,11.54,11.54,0,0,0,3.28-2.05l5.7,5.93q-4.51,5-13.17,5a21,21,0,0,1-9.52-2.05,15.15,15.15,0,0,1-8.61-14,15.26,15.26,0,0,1,8.27-13.85,19.46,19.46,0,0,1,17.1-.14,14.57,14.57,0,0,1,6,5.53,16.24,16.24,0,0,1,2.19,8.58C542.15,31.51,542.09,32.41,542,34.12Zm-20.49-9.58a6.42,6.42,0,0,0-2.14,3.88H532a6.4,6.4,0,0,0-2.13-3.88,6.89,6.89,0,0,0-8.38,0Z"/><path class="cls-1" d="M571.22,18.93c2.7,2.33,4,5.92,4,10.74V46.83H565.18v-4q-2.34,4.5-9.12,4.5a14.38,14.38,0,0,1-6.22-1.25,9.35,9.35,0,0,1-4-3.39,9,9,0,0,1-1.34-4.88A7.91,7.91,0,0,1,547.91,31q3.36-2.42,10.37-2.42h6.16q-.29-4.9-6.56-4.9a14.87,14.87,0,0,0-4.5.71,11.91,11.91,0,0,0-3.88,2L545.85,19a20.34,20.34,0,0,1,6.25-2.65,29.52,29.52,0,0,1,7.38-.94Q567.17,15.42,571.22,18.93Zm-8.84,20.66a5.1,5.1,0,0,0,2.06-2.68V34.23h-4.68q-4.72,0-4.73,3.14a2.76,2.76,0,0,0,1.08,2.28,4.68,4.68,0,0,0,3,.85A6,6,0,0,0,562.38,39.59Z"/><path class="cls-1" d="M585.7,46.46a20.24,20.24,0,0,1-6.05-2.31l3.25-7.41a18.44,18.44,0,0,0,5,2.08,22.59,22.59,0,0,0,5.76.77,9.25,9.25,0,0,0,3.73-.54,1.7,1.7,0,0,0,1.11-1.57c0-.68-.45-1.17-1.34-1.45a27.52,27.52,0,0,0-4.24-.83,40.73,40.73,0,0,1-6.3-1.2,9.72,9.72,0,0,1-4.48-2.73,7.84,7.84,0,0,1-1.88-5.59,8.44,8.44,0,0,1,1.77-5.27,11.71,11.71,0,0,1,5.16-3.65,22.16,22.16,0,0,1,8.12-1.34,32.62,32.62,0,0,1,6.67.69A19.2,19.2,0,0,1,607.53,18l-3.25,7.36a18,18,0,0,0-8.89-2.28,9.08,9.08,0,0,0-3.77.59,1.8,1.8,0,0,0-1.19,1.57c0,.72.43,1.23,1.31,1.51a30,30,0,0,0,4.33.89A46.69,46.69,0,0,1,602.4,29a9.66,9.66,0,0,1,4.36,2.7,7.76,7.76,0,0,1,1.85,5.51,8.35,8.35,0,0,1-1.77,5.21A11.41,11.41,0,0,1,601.63,46a23.51,23.51,0,0,1-8.3,1.31A33.21,33.21,0,0,1,585.7,46.46Z"/><path class="cls-1" d="M644.69,34.12H622.23a6.29,6.29,0,0,0,2.65,3.67,8.84,8.84,0,0,0,4.93,1.29,10.6,10.6,0,0,0,3.85-.63,11.28,11.28,0,0,0,3.28-2.05l5.7,5.93q-4.5,5-13.17,5A21,21,0,0,1,620,45.29a15.11,15.11,0,0,1-8.6-14,15.23,15.23,0,0,1,8.26-13.85,19.46,19.46,0,0,1,17.1-.14,14.57,14.57,0,0,1,6,5.53,16.24,16.24,0,0,1,2.19,8.58C644.86,31.51,644.81,32.41,644.69,34.12ZM624.2,24.54a6.47,6.47,0,0,0-2.14,3.88h12.66a6.47,6.47,0,0,0-2.14-3.88,6.89,6.89,0,0,0-8.38,0Z"/><path class="cls-1" d="M717.65,15.93l-11,30.9H696.16L690.35,30l-6,16.82H673.82l-11-30.9h10.26l6.32,18.7L686,15.93h9.23l6.39,18.87,6.55-18.87Z"/><path class="cls-1" d="M735.58,16.48a16.16,16.16,0,0,1,6.07-1.06v9.75A20.82,20.82,0,0,0,739.2,25a7.54,7.54,0,0,0-5.45,1.88q-2,1.88-2,5.75v14.2H721V15.93h10.31v3.71A10,10,0,0,1,735.58,16.48Z"/><path class="cls-1" d="M746.72,10.86a5.29,5.29,0,0,1-1.82-4.1,5.31,5.31,0,0,1,1.82-4.11A6.87,6.87,0,0,1,751.51,1a7.09,7.09,0,0,1,4.79,1.57,5.06,5.06,0,0,1,1.82,4,5.53,5.53,0,0,1-1.82,4.24,6.81,6.81,0,0,1-4.79,1.68A6.87,6.87,0,0,1,746.72,10.86Zm-.63,5.07h10.83v30.9H746.09Z"/><path class="cls-1" d="M785.25,45.57a10.77,10.77,0,0,1-3.33,1.31,18.24,18.24,0,0,1-4.19.46q-6,0-9.29-3t-3.25-8.84V25.17h-4.51v-8.1h4.51V9H776v8h7.06v8.1H776V35.43A3.63,3.63,0,0,0,776.9,38a3.09,3.09,0,0,0,2.37.94,5.7,5.7,0,0,0,3.3-1Z"/><path class="cls-1" d="M819.91,34.12H797.45a6.25,6.25,0,0,0,2.65,3.67A8.8,8.8,0,0,0,805,39.08a10.68,10.68,0,0,0,3.85-.63,11.37,11.37,0,0,0,3.27-2.05l5.7,5.93q-4.5,5-13.16,5a21,21,0,0,1-9.52-2.05,15.1,15.1,0,0,1-8.61-14,15.26,15.26,0,0,1,8.27-13.85,19.46,19.46,0,0,1,17.1-.14,14.48,14.48,0,0,1,6,5.53,16.15,16.15,0,0,1,2.2,8.58C820.08,31.51,820,32.41,819.91,34.12Zm-20.49-9.58a6.37,6.37,0,0,0-2.14,3.88h12.65a6.42,6.42,0,0,0-2.14-3.88,6.88,6.88,0,0,0-8.37,0Z"/><path class="cls-1" d="M825,26.42a6.12,6.12,0,0,1-1.88-4.62A6.07,6.07,0,0,1,825,17.19a7,7,0,0,1,9.32,0,6.16,6.16,0,0,1,1.82,4.61,6.21,6.21,0,0,1-1.85,4.62,6.77,6.77,0,0,1-9.26,0Zm0,19.1a6.15,6.15,0,0,1-1.88-4.62A6.08,6.08,0,0,1,825,36.28a7,7,0,0,1,9.32,0,6.17,6.17,0,0,1,1.82,4.62,6.24,6.24,0,0,1-1.85,4.62,6.8,6.8,0,0,1-9.26,0Z"/><path class="cls-2" d="M13.11,84.42A6.4,6.4,0,0,1,14,87.81a6.14,6.14,0,0,1-1.83,4.62A6.41,6.41,0,0,1,7.5,94.2a6.45,6.45,0,0,1-4.68-1.77A6.17,6.17,0,0,1,1,87.81a10.24,10.24,0,0,1,.34-2.62,25.62,25.62,0,0,1,1.54-3.88l3.65-8.38h6.78l-2.68,9.3A5.51,5.51,0,0,1,13.11,84.42Z"/><path class="cls-2" d="M31.35,84.42a6.39,6.39,0,0,1,.88,3.39,6.13,6.13,0,0,1-1.82,4.62,6.43,6.43,0,0,1-4.67,1.77,6.45,6.45,0,0,1-4.68-1.77,6.17,6.17,0,0,1-1.82-4.62,10.24,10.24,0,0,1,.34-2.62,25.62,25.62,0,0,1,1.54-3.88l3.65-8.38h6.78l-2.68,9.3A5.51,5.51,0,0,1,31.35,84.42Z"/><path class="cls-2" d="M66.12,85.79a14.32,14.32,0,0,1,5.47,5.58,18.44,18.44,0,0,1,0,16.82,14.41,14.41,0,0,1-5.47,5.59,15.2,15.2,0,0,1-7.67,2,11.47,11.47,0,0,1-8.6-3.25v13.8H39v-42H49.33v3.08q3-3.59,9.12-3.59A15.21,15.21,0,0,1,66.12,85.79Zm-5.27,19.38a8.89,8.89,0,0,0,0-10.78,6.56,6.56,0,0,0-9.35,0,8.89,8.89,0,0,0,0,10.78,6.56,6.56,0,0,0,9.35,0Z"/><path class="cls-2" d="M93.25,84.88a16.19,16.19,0,0,1,6.07-1.06v9.75a20.69,20.69,0,0,0-2.45-.17,7.51,7.51,0,0,0-5.44,1.88q-2,1.88-2,5.76v14.19H78.63V84.33H89V88A10,10,0,0,1,93.25,84.88Z"/><path class="cls-2" d="M110,113.69a15.27,15.27,0,0,1-8.49-14A15.25,15.25,0,0,1,110,85.84a21,21,0,0,1,18,0,15.05,15.05,0,0,1,8.44,13.88,15.59,15.59,0,0,1-2.22,8.27,15.39,15.39,0,0,1-6.22,5.7,20.67,20.67,0,0,1-17.95,0Zm13.62-8.52a7.69,7.69,0,0,0,1.83-5.45,7.47,7.47,0,0,0-1.83-5.35,6.6,6.6,0,0,0-9.35,0,7.51,7.51,0,0,0-1.82,5.35,7.73,7.73,0,0,0,1.82,5.45,6.56,6.56,0,0,0,9.35,0Z"/><path class="cls-2" d="M153.24,85.47h7.36v8.1h-7.07v21.66H142.7V93.57h-4.5v-8.1h4.5v-.79a11.91,11.91,0,0,1,3.39-9q3.39-3.32,9.49-3.31a19.43,19.43,0,0,1,4,.4,9.58,9.58,0,0,1,3.19,1.2l-2.68,7.64a6.44,6.44,0,0,0-3.25-.92,3.43,3.43,0,0,0-2.65,1,4.35,4.35,0,0,0-.94,3Z"/><path class="cls-2" d="M195.65,102.52H173.19a6.29,6.29,0,0,0,2.65,3.67,8.84,8.84,0,0,0,4.93,1.29,10.6,10.6,0,0,0,3.85-.63,11.28,11.28,0,0,0,3.28-2l5.7,5.93q-4.5,5-13.17,5a21,21,0,0,1-9.52-2,15.6,15.6,0,0,1-.34-27.82,19.46,19.46,0,0,1,17.1-.14,14.57,14.57,0,0,1,6,5.53,16.24,16.24,0,0,1,2.19,8.58C195.82,99.92,195.77,100.81,195.65,102.52Zm-20.49-9.58A6.47,6.47,0,0,0,173,96.82h12.66a6.47,6.47,0,0,0-2.14-3.88,6.89,6.89,0,0,0-8.38,0Z"/><path class="cls-2" d="M204.43,114.86a20.16,20.16,0,0,1-6-2.31l3.25-7.41a18.24,18.24,0,0,0,5,2.08,22.59,22.59,0,0,0,5.76.77,9.22,9.22,0,0,0,3.73-.54,1.7,1.7,0,0,0,1.11-1.57c0-.68-.44-1.17-1.33-1.45a27.7,27.7,0,0,0-4.25-.83,40.73,40.73,0,0,1-6.3-1.2,9.64,9.64,0,0,1-4.47-2.73A7.8,7.8,0,0,1,199,94.08a8.44,8.44,0,0,1,1.77-5.27,11.71,11.71,0,0,1,5.16-3.65,22.16,22.16,0,0,1,8.12-1.34,32.55,32.55,0,0,1,6.67.69,19.2,19.2,0,0,1,5.53,1.93L223,93.8a18,18,0,0,0-8.89-2.28,8.84,8.84,0,0,0-3.76.6,1.77,1.77,0,0,0-1.2,1.56c0,.73.44,1.23,1.31,1.51a30.26,30.26,0,0,0,4.33.89,46.69,46.69,0,0,1,6.33,1.31,9.61,9.61,0,0,1,4.36,2.7,7.72,7.72,0,0,1,1.85,5.51,8.41,8.41,0,0,1-1.76,5.21,11.49,11.49,0,0,1-5.22,3.62,23.45,23.45,0,0,1-8.29,1.31A33.23,33.23,0,0,1,204.43,114.86Z"/><path class="cls-2" d="M235.61,114.86a20.16,20.16,0,0,1-6-2.31l3.24-7.41a18.44,18.44,0,0,0,5,2.08,22.59,22.59,0,0,0,5.76.77,9.22,9.22,0,0,0,3.73-.54,1.7,1.7,0,0,0,1.11-1.57c0-.68-.44-1.17-1.34-1.45a27.26,27.26,0,0,0-4.24-.83,40.73,40.73,0,0,1-6.3-1.2,9.72,9.72,0,0,1-4.48-2.73,7.84,7.84,0,0,1-1.88-5.59A8.44,8.44,0,0,1,232,88.81a11.71,11.71,0,0,1,5.16-3.65,22.16,22.16,0,0,1,8.12-1.34,32.55,32.55,0,0,1,6.67.69,19.2,19.2,0,0,1,5.53,1.93l-3.25,7.36a18,18,0,0,0-8.89-2.28,8.81,8.81,0,0,0-3.76.6,1.77,1.77,0,0,0-1.2,1.56c0,.73.44,1.23,1.31,1.51a30,30,0,0,0,4.33.89,46.69,46.69,0,0,1,6.33,1.31,9.66,9.66,0,0,1,4.36,2.7,7.76,7.76,0,0,1,1.85,5.51,8.35,8.35,0,0,1-1.77,5.21,11.41,11.41,0,0,1-5.21,3.62,23.45,23.45,0,0,1-8.29,1.31A33.23,33.23,0,0,1,235.61,114.86Z"/><path class="cls-2" d="M263.82,79.26a5.54,5.54,0,0,1,0-8.21,6.87,6.87,0,0,1,4.79-1.65A7.07,7.07,0,0,1,273.4,71a5.06,5.06,0,0,1,1.82,4,5.53,5.53,0,0,1-1.82,4.24,6.79,6.79,0,0,1-4.79,1.68A6.87,6.87,0,0,1,263.82,79.26Zm-.62,5.07H274v30.9H263.2Z"/><path class="cls-2" d="M287.59,113.69a15.27,15.27,0,0,1-8.49-14,15.25,15.25,0,0,1,8.46-13.88,21,21,0,0,1,18,0,15.18,15.18,0,0,1,6.21,5.65A15.42,15.42,0,0,1,314,99.72a15.59,15.59,0,0,1-2.22,8.27,15.29,15.29,0,0,1-6.21,5.7,20.69,20.69,0,0,1-18,0Zm13.62-8.52A7.69,7.69,0,0,0,303,99.72a7.47,7.47,0,0,0-1.83-5.35,6.59,6.59,0,0,0-9.34,0A7.47,7.47,0,0,0,290,99.72a7.69,7.69,0,0,0,1.83,5.45,6.54,6.54,0,0,0,9.34,0Z"/><path class="cls-2" d="M348.38,87.24q3.51,3.42,3.51,10.32v17.67H341.06V99.33c0-4.22-1.7-6.33-5.08-6.33a5.8,5.8,0,0,0-4.47,1.82,7.84,7.84,0,0,0-1.68,5.47v14.94H319V84.33h10.31V87.7a12.13,12.13,0,0,1,4.34-2.88,14.54,14.54,0,0,1,5.47-1A12.69,12.69,0,0,1,348.38,87.24Z"/><path class="cls-2" d="M383.58,87.33c2.7,2.33,4,5.92,4,10.74v17.16H377.54v-4q-2.34,4.5-9.12,4.5a14.38,14.38,0,0,1-6.22-1.25,9.23,9.23,0,0,1-4-3.39,9,9,0,0,1-1.34-4.88,7.91,7.91,0,0,1,3.37-6.81Q363.63,97,370.64,97h6.15q-.29-4.9-6.55-4.9a14.87,14.87,0,0,0-4.5.71,11.81,11.81,0,0,0-3.88,2l-3.65-7.36a20.28,20.28,0,0,1,6.24-2.65,29.66,29.66,0,0,1,7.39-.94Q379.54,83.82,383.58,87.33ZM374.74,108a5,5,0,0,0,2.05-2.68v-2.68h-4.67q-4.72,0-4.73,3.14a2.76,2.76,0,0,0,1.08,2.28,4.66,4.66,0,0,0,3,.85A6,6,0,0,0,374.74,108Z"/><path class="cls-2" d="M394.46,72.93h10.83v42.3H394.46Z"/><path class="cls-2" d="M427.87,75.33v39.9H416.58V84.05h-7.41V75.33Z"/><path class="cls-2" d="M461.15,91.37a12.43,12.43,0,0,1,5,4.45A11.85,11.85,0,0,1,468,102.4a12.54,12.54,0,0,1-2.08,7.16,13.6,13.6,0,0,1-5.64,4.78,18.27,18.27,0,0,1-7.95,1.69q-8.55,0-13.51-5.08t-5-14.59a24.5,24.5,0,0,1,2.65-11.77,17.91,17.91,0,0,1,7.44-7.49,23.18,23.18,0,0,1,11.11-2.57,27.9,27.9,0,0,1,6.5.74,16.75,16.75,0,0,1,5.25,2.17l-4.11,8.09a12.43,12.43,0,0,0-7.35-2,9.36,9.36,0,0,0-10.09,9.29,13.24,13.24,0,0,1,9-3A15.26,15.26,0,0,1,461.15,91.37Zm-5.61,15.25a4.72,4.72,0,0,0,1.51-3.7,4.67,4.67,0,0,0-1.51-3.65,6.4,6.4,0,0,0-8,0,5.12,5.12,0,0,0,0,7.29,5.76,5.76,0,0,0,4.07,1.4A5.62,5.62,0,0,0,455.54,106.62Z"/><path class="cls-2" d="M487.94,75.33v39.9H476.66V84.05h-7.41V75.33Z"/><path class="cls-2" d="M495.41,113.92a6.19,6.19,0,0,1-1.88-4.62,6.12,6.12,0,0,1,1.85-4.62,7,7,0,0,1,9.32,0,6.13,6.13,0,0,1,1.82,4.62,6.2,6.2,0,0,1-1.85,4.62,6.8,6.8,0,0,1-9.26,0Z"/><path class="cls-2" d="M526.22,84.88a16.16,16.16,0,0,1,6.07-1.06v9.75a20.82,20.82,0,0,0-2.45-.17,7.54,7.54,0,0,0-5.45,1.88q-2,1.88-2,5.76v14.19H511.6V84.33h10.31V88A10.07,10.07,0,0,1,526.22,84.88Z"/><path class="cls-2" d="M569.34,84.33v30.9H559v-3.31a11,11,0,0,1-4.1,2.85,13.35,13.35,0,0,1-5.08,1,13,13,0,0,1-9.54-3.53q-3.57-3.54-3.57-10.6V84.33h10.83V99.84q0,3.48,1.31,5.07a4.65,4.65,0,0,0,3.82,1.6,5.38,5.38,0,0,0,4.19-1.8q1.64-1.8,1.63-5.5V84.33Z"/><path class="cls-2" d="M585.52,74.19a6.14,6.14,0,0,1,1.83,4.62,10.77,10.77,0,0,1-.34,2.62,31.06,31.06,0,0,1-1.49,3.93l-3.64,8.32h-6.79l2.68-9.29a5.56,5.56,0,0,1-2.48-2.19,6.39,6.39,0,0,1-.88-3.39,6.17,6.17,0,0,1,1.82-4.62,6.45,6.45,0,0,1,4.68-1.77A6.34,6.34,0,0,1,585.52,74.19Z"/><path class="cls-2" d="M603.76,74.19a6.14,6.14,0,0,1,1.83,4.62,10.77,10.77,0,0,1-.34,2.62,31.06,31.06,0,0,1-1.49,3.93l-3.64,8.32h-6.79L596,84.39a5.56,5.56,0,0,1-2.48-2.19,6.39,6.39,0,0,1-.88-3.39,6.17,6.17,0,0,1,1.82-4.62,6.45,6.45,0,0,1,4.68-1.77A6.34,6.34,0,0,1,603.76,74.19Z"/><path class="cls-1" d="M9.49,182.09a15.27,15.27,0,0,1-8.49-14,15.22,15.22,0,0,1,8.46-13.87,19.46,19.46,0,0,1,9-2,19.62,19.62,0,0,1,9,2,15.09,15.09,0,0,1,6.21,5.64,15.42,15.42,0,0,1,2.22,8.23,15.59,15.59,0,0,1-2.22,8.27,15.29,15.29,0,0,1-6.21,5.7,19.38,19.38,0,0,1-9,2A19.27,19.27,0,0,1,9.49,182.09Zm13.63-8.52a7.73,7.73,0,0,0,1.82-5.45,7.51,7.51,0,0,0-1.82-5.35,6.16,6.16,0,0,0-4.68-1.94,6.13,6.13,0,0,0-4.67,1.94,7.47,7.47,0,0,0-1.83,5.35,7.69,7.69,0,0,0,1.83,5.45,6.08,6.08,0,0,0,4.67,2A6.12,6.12,0,0,0,23.12,173.57Z"/><path class="cls-1" d="M70.28,155.64q3.51,3.42,3.51,10.32v17.67H63v-15.9q0-6.33-5.08-6.33a5.8,5.8,0,0,0-4.47,1.82,7.85,7.85,0,0,0-1.68,5.48v14.93H40.9v-42.3H51.73v14.25a11.83,11.83,0,0,1,4.16-2.5,15.18,15.18,0,0,1,5.13-.86A12.68,12.68,0,0,1,70.28,155.64Z"/><path class="cls-1" d="M110,155.64q3.51,3.42,3.51,10.32v17.67H102.63v-15.9q0-6.33-5.07-6.33a5.81,5.81,0,0,0-4.48,1.82,7.85,7.85,0,0,0-1.68,5.48v14.93H80.57v-42.3H91.4v14.25a11.92,11.92,0,0,1,4.16-2.5,15.18,15.18,0,0,1,5.13-.86A12.68,12.68,0,0,1,110,155.64Z"/><path class="cls-1" d="M129.48,173.08a6.17,6.17,0,0,1,1.82,4.62,10.19,10.19,0,0,1-.34,2.62,27,27,0,0,1-1.54,3.94l-3.59,8.32h-6.78l2.67-9.29a5.57,5.57,0,0,1-2.47-2.2,6.4,6.4,0,0,1-.89-3.39,6.14,6.14,0,0,1,1.83-4.62,7,7,0,0,1,9.29,0Z"/><path class="cls-1" d="M174.28,182.38a11.2,11.2,0,0,1-3.34,1.31,18.76,18.76,0,0,1-4.19.45q-6,0-9.29-3t-3.25-8.84V162h-4.5v-8.09h4.5v-8H165v8h7.07V162H165v10.26a3.62,3.62,0,0,0,.89,2.59,3.07,3.07,0,0,0,2.36.94,5.71,5.71,0,0,0,3.31-1Z"/><path class="cls-1" d="M207.82,155.64q3.51,3.42,3.51,10.32v17.67H200.5v-15.9q0-6.33-5.08-6.33a5.8,5.8,0,0,0-4.47,1.82,7.85,7.85,0,0,0-1.68,5.48v14.93H178.44v-42.3h10.83v14.25a11.74,11.74,0,0,1,4.16-2.5,15.09,15.09,0,0,1,5.13-.86A12.69,12.69,0,0,1,207.82,155.64Z"/><path class="cls-1" d="M243,155.73c2.7,2.33,4,5.92,4,10.74v17.16H237v-4q-2.34,4.5-9.12,4.5a14.38,14.38,0,0,1-6.22-1.25,9.29,9.29,0,0,1-4-3.39,9,9,0,0,1-1.34-4.88,7.91,7.91,0,0,1,3.37-6.81q3.36-2.42,10.37-2.42h6.16c-.2-3.27-2.38-4.9-6.56-4.9a14.87,14.87,0,0,0-4.5.71,11.81,11.81,0,0,0-3.88,2l-3.65-7.36a20.24,20.24,0,0,1,6.25-2.65,30,30,0,0,1,7.38-.94Q239,152.22,243,155.73Zm-8.84,20.66a5.1,5.1,0,0,0,2.06-2.68V171h-4.68q-4.73,0-4.73,3.14a2.76,2.76,0,0,0,1.08,2.28,4.66,4.66,0,0,0,3,.85A6,6,0,0,0,234.18,176.39Z"/><path class="cls-1" d="M283.29,155.64q3.49,3.42,3.5,10.32v17.67H276v-15.9q0-6.33-5.07-6.33a5.8,5.8,0,0,0-4.47,1.82c-1.13,1.22-1.69,3-1.69,5.48v14.93H253.9V152.74h10.32v3.36a12.18,12.18,0,0,1,4.33-2.88,14.63,14.63,0,0,1,5.48-1A12.71,12.71,0,0,1,283.29,155.64Z"/><path class="cls-1" d="M307.6,172.8l-3.19,3.25v7.58H293.58v-42.3h10.83v22.18l11-10.77h12.83L315.46,166l13.91,17.67H316.26Z"/><path class="cls-1" d="M381.81,152.74l-13.34,32.14q-2.34,5.7-5.7,8a14.15,14.15,0,0,1-8.21,2.31,16.71,16.71,0,0,1-4.93-.77,11.86,11.86,0,0,1-4-2l3.76-7.58a6.72,6.72,0,0,0,2.19,1.34,7.38,7.38,0,0,0,2.6.48,4.65,4.65,0,0,0,2.53-.63,4.74,4.74,0,0,0,1.68-2l-13.22-31.29h11.11l7.59,18.86,7.63-18.86Z"/><path class="cls-1" d="M390.3,182.09a15.27,15.27,0,0,1-8.49-14,15.2,15.2,0,0,1,8.47-13.87,19.42,19.42,0,0,1,9-2,19.62,19.62,0,0,1,9,2,15.09,15.09,0,0,1,6.21,5.64,15.42,15.42,0,0,1,2.22,8.23,15.59,15.59,0,0,1-2.22,8.27,15.29,15.29,0,0,1-6.21,5.7,20.69,20.69,0,0,1-18,0Zm13.63-8.52a7.73,7.73,0,0,0,1.82-5.45,7.51,7.51,0,0,0-1.82-5.35,6.6,6.6,0,0,0-9.35,0,7.47,7.47,0,0,0-1.83,5.35,7.69,7.69,0,0,0,1.83,5.45,6.53,6.53,0,0,0,9.35,0Z"/><path class="cls-1" d="M454.2,152.74v30.89H443.88v-3.31a10.91,10.91,0,0,1-4.1,2.85,13.34,13.34,0,0,1-5.07,1,13,13,0,0,1-9.55-3.53q-3.57-3.54-3.56-10.6V152.74h10.83v15.5c0,2.32.43,4,1.31,5.07a4.63,4.63,0,0,0,3.82,1.6,5.4,5.4,0,0,0,4.19-1.8c1.08-1.19,1.62-3,1.62-5.5V152.74Z"/><path class="cls-1" d="M461.61,182.4a5.6,5.6,0,0,1-1.82-4.24,5.42,5.42,0,0,1,1.82-4.22,6.7,6.7,0,0,1,4.67-1.65,6.61,6.61,0,0,1,4.65,1.65,5.47,5.47,0,0,1,1.79,4.22,5.6,5.6,0,0,1-1.82,4.24,7.07,7.07,0,0,1-9.29,0Zm-1.77-38.67h12.88l-2.16,25.36H462Z"/></g></g></svg>